<svg width="100" height="100" viewBox="0 0 100 100" fill="none" xmlns="http://www.w3.org/2000/svg">
<g clip-path="url(#clip0_4_101)">
<rect width="100" height="100" rx="24" fill="#0E3385"/>
<circle cx="42.9375" cy="29.8794" r="2.05312" fill="white"/>
<circle cx="50.3288" cy="28.6475" r="2.05312" fill="white"/>
<circle cx="57.72" cy="29.8794" r="2.05312" fill="white"/>
<circle cx="63.8794" cy="33.575" r="2.05312" fill="white"/>
<circle cx="68.8069" cy="39.3237" r="2.05312" fill="white"/>
<circle cx="71.2706" cy="46.3044" r="2.05312" fill="white"/>
<circle cx="71.2706" cy="53.6956" r="2.05312" fill="white"/>
<circle cx="68.8069" cy="60.6762" r="2.05312" fill="white"/>
<circle cx="63.8794" cy="66.425" r="2.05312" fill="white"/>
<circle cx="57.72" cy="70.1206" r="2.05312" fill="white"/>
<circle cx="50.3288" cy="71.3525" r="2.05312" fill="white"/>
<circle cx="42.9375" cy="70.1206" r="2.05312" fill="white"/>
<circle cx="36.3675" cy="66.425" r="2.05312" fill="white"/>
<circle cx="31.8507" cy="60.6762" r="2.05312" fill="white"/>
<circle cx="28.9763" cy="53.6956" r="2.05312" fill="white"/>
<circle cx="28.9763" cy="46.3044" r="2.05312" fill="white"/>
<circle cx="31.8507" cy="39.3237" r="2.05312" fill="white"/>
<circle cx="36.3675" cy="33.575" r="2.05312" fill="white"/>
<circle cx="24.0488" cy="40.9663" r="1.6425" fill="white"/>
<circle cx="22.4063" cy="50" r="1.6425" fill="white"/>
<circle cx="24.0488" cy="58.6231" r="1.6425" fill="white"/>
<circle cx="28.9763" cy="66.425" r="1.6425" fill="white"/>
<circle cx="36.7782" cy="72.1737" r="1.6425" fill="white"/>
<circle cx="46.6331" cy="75.4587" r="1.6425" fill="white"/>
<circle cx="54.0244" cy="75.4587" r="1.6425" fill="white"/>
<circle cx="63.8794" cy="72.5844" r="1.6425" fill="white"/>
<circle cx="71.2706" cy="66.425" r="1.6425" fill="white"/>
<circle cx="76.1981" cy="58.6231" r="1.6425" fill="white"/>
<circle cx="77.8406" cy="50" r="1.6425" fill="white"/>
<circle cx="76.1981" cy="40.9663" r="1.6425" fill="white"/>
<circle cx="71.2706" cy="33.1644" r="1.6425" fill="white"/>
<circle cx="63.8794" cy="27.4156" r="1.6425" fill="white"/>
<circle cx="54.8456" cy="24.5413" r="1.6425" fill="white"/>
<circle cx="45.4013" cy="24.5413" r="1.6425" fill="white"/>
<circle cx="36.7782" cy="27.4156" r="1.6425" fill="white"/>
<circle cx="28.9763" cy="33.1644" r="1.6425" fill="white"/>
<circle cx="21.7903" cy="35.4228" r="1.02656" fill="white"/>
<circle cx="17.6841" cy="44.8672" r="1.02656" fill="white"/>
<circle cx="17.6841" cy="54.7222" r="1.02656" fill="white"/>
<circle cx="21.3797" cy="64.1666" r="1.02656" fill="white"/>
<circle cx="29.1816" cy="72.3791" r="1.02656" fill="white"/>
<circle cx="39.0366" cy="77.3066" r="1.02656" fill="white"/>
<circle cx="50.1235" cy="78.9491" r="1.02656" fill="white"/>
<circle cx="60.3891" cy="77.3066" r="1.02656" fill="white"/>
<circle cx="71.476" cy="71.9684" r="1.02656" fill="white"/>
<circle cx="78.8672" cy="64.5772" r="1.02656" fill="white"/>
<circle cx="82.9734" cy="54.7222" r="1.02656" fill="white"/>
<circle cx="82.9734" cy="44.8672" r="1.02656" fill="white"/>
<circle cx="78.8672" cy="35.4228" r="1.02656" fill="white"/>
<circle cx="71.476" cy="27.621" r="1.02656" fill="white"/>
<circle cx="61.621" cy="22.6934" r="1.02656" fill="white"/>
<circle cx="50.1235" cy="21.0509" r="1.02656" fill="white"/>
<circle cx="39.0366" cy="22.6934" r="1.02656" fill="white"/>
<circle cx="29.1816" cy="27.621" r="1.02656" fill="white"/>
<path d="M50.3288 39.7344H54.8456L64.7006 57.8019H60.1838L50.3288 39.7344Z" fill="white"/>
<path d="M49.9182 39.7344H45.4013L35.5463 57.8019H40.0632L49.9182 39.7344Z" fill="white"/>
<rect x="42.8065" y="-43.14" width="137.062" height="20.5505" transform="rotate(45 42.8065 -43.14)" fill="#D21033"/>
<path d="M89.7623 10.1091L83.8171 13.1463L83.9389 13.9685L87.9252 11.9461L87.098 13.6107L87.6841 14.1968L89.7623 10.1091Z" fill="#15AF23"/>
<path d="M82.1918 8.91059L83.2432 15.5033L84.0627 15.6416L83.3712 11.2255L84.6987 12.5265L85.4373 12.1502L82.1918 8.91059Z" fill="#15AF23"/>
<path d="M78.7144 15.7338L85.3094 16.7711L85.6941 16.0344L81.2804 15.3274L82.928 14.467L82.7984 13.6482L78.7144 15.7338Z" fill="#15AF23"/>
<path d="M84.1431 21.1424L87.1675 15.1907L86.5857 14.5972L84.5495 18.5763L84.2403 16.7435L83.4216 16.6138L84.1431 21.1424Z" fill="#15AF23"/>
<path d="M90.9516 17.6721L86.2258 12.9565L85.4816 13.3264L88.6367 16.4927L86.7981 16.2203L86.4217 16.9589L90.9516 17.6721Z" fill="#15AF23"/>
</g>
<defs>
<clipPath id="clip0_4_101">
<rect width="100" height="100" rx="24" fill="white"/>
</clipPath>
</defs>
</svg>
