<svg width="155" height="33" viewBox="0 0 155 33" fill="none" xmlns="http://www.w3.org/2000/svg">
<g clip-path="url(#clip0_4_96)">
<path d="M106.107 11.9392C106.157 11.9354 106.205 11.9166 106.245 11.8852C106.285 11.8537 106.315 11.8111 106.33 11.7627C106.346 11.7143 106.347 11.6623 106.333 11.6134C106.319 11.5644 106.291 11.5207 106.253 11.4877C106.214 11.4548 106.167 11.4341 106.116 11.4283C106.066 11.4225 106.015 11.4319 105.97 11.4552C105.925 11.4785 105.888 11.5148 105.864 11.5594C105.839 11.6039 105.829 11.6548 105.833 11.7055C105.839 11.7728 105.871 11.8351 105.922 11.8789C105.973 11.9226 106.04 11.9443 106.107 11.9392ZM89.8681 3.6159C89.8681 3.76365 89.9117 3.9081 89.9933 4.03095C90.075 4.15381 90.191 4.24957 90.3268 4.30611C90.4626 4.36266 90.612 4.37745 90.7561 4.34862C90.9003 4.3198 91.0327 4.24865 91.1366 4.14416C91.2405 4.03968 91.3113 3.90656 91.34 3.76164C91.3687 3.61672 91.3539 3.46651 91.2977 3.33C91.2415 3.19349 91.1462 3.07681 91.024 2.99472C90.9018 2.91263 90.7581 2.86881 90.6112 2.86881C90.4141 2.86881 90.2251 2.94752 90.0857 3.08763C89.9464 3.22773 89.8681 3.41776 89.8681 3.6159ZM94.5865 5.22006C94.5865 5.36892 94.6304 5.51443 94.7128 5.63814C94.7951 5.76185 94.9122 5.85819 95.0491 5.91494C95.1859 5.97169 95.3365 5.98631 95.4817 5.95693C95.6268 5.92756 95.76 5.85551 95.8644 5.74993C95.9688 5.64435 96.0396 5.50999 96.0679 5.36388C96.0963 5.21777 96.0808 5.06649 96.0235 4.92922C95.9662 4.79196 95.8697 4.67488 95.7462 4.59284C95.6226 4.5108 95.4776 4.46749 95.3296 4.4684C95.2316 4.46839 95.1346 4.48787 95.0441 4.5257C94.9537 4.56353 94.8716 4.61897 94.8025 4.68883C94.7334 4.75869 94.6788 4.84159 94.6417 4.93276C94.6046 5.02393 94.5859 5.12157 94.5865 5.22006ZM76.8071 24.7863C76.8062 24.9352 76.8492 25.0809 76.9308 25.2052C77.0124 25.3294 77.1289 25.4264 77.2654 25.484C77.402 25.5416 77.5524 25.5572 77.6977 25.5287C77.8431 25.5002 77.9767 25.429 78.0817 25.324C78.1868 25.2191 78.2584 25.0852 78.2876 24.9392C78.3169 24.7933 78.3023 24.6419 78.2459 24.5043C78.1894 24.3667 78.0936 24.249 77.9705 24.1662C77.8475 24.0834 77.7028 24.0392 77.5547 24.0392C77.4567 24.0386 77.3596 24.0575 77.2689 24.0948C77.1783 24.132 77.0958 24.187 77.0263 24.2564C76.9568 24.3258 76.9017 24.4084 76.8641 24.4994C76.8264 24.5903 76.8071 24.6878 76.8071 24.7863ZM80.4769 27.8938C80.4769 28.0427 80.5209 28.1882 80.6032 28.3119C80.6856 28.4356 80.8026 28.5319 80.9395 28.5887C81.0764 28.6454 81.2269 28.6601 81.3721 28.6307C81.5173 28.6013 81.6505 28.5293 81.7548 28.4237C81.8592 28.3181 81.9301 28.1837 81.9584 28.0376C81.9867 27.8915 81.9713 27.7402 81.914 27.603C81.8567 27.4657 81.7601 27.3486 81.6366 27.2666C81.513 27.1845 81.3681 27.1412 81.22 27.1421C81.0225 27.1434 80.8335 27.2231 80.6943 27.3639C80.5551 27.5048 80.4769 27.6952 80.4769 27.8938ZM85.1679 29.333C85.1679 29.4816 85.2118 29.627 85.2939 29.7506C85.3761 29.8742 85.4929 29.9705 85.6295 30.0274C85.7661 30.0843 85.9164 30.0992 86.0614 30.0702C86.2065 30.0412 86.3397 29.9696 86.4443 29.8645C86.5488 29.7594 86.62 29.6254 86.6489 29.4796C86.6777 29.3338 86.6629 29.1827 86.6063 29.0453C86.5497 28.908 86.4539 28.7906 86.331 28.708C86.208 28.6254 86.0635 28.5813 85.9156 28.5813C85.7173 28.5813 85.5271 28.6605 85.3869 28.8015C85.2467 28.9424 85.1679 29.1336 85.1679 29.333ZM89.9729 29.2734C89.9765 29.4201 90.023 29.5625 90.1066 29.6829C90.1902 29.8032 90.3072 29.8961 90.443 29.95C90.5788 30.0038 90.7274 30.0163 90.8702 29.9858C91.013 29.9553 91.1437 29.8832 91.246 29.7785C91.3483 29.6738 91.4176 29.5411 91.4454 29.397C91.4731 29.2529 91.458 29.1038 91.402 28.9682C91.3459 28.8327 91.2514 28.7168 91.1302 28.6349C91.009 28.5531 90.8666 28.5089 90.7206 28.508C90.6226 28.508 90.5256 28.5275 90.4352 28.5653C90.3447 28.6031 90.2626 28.6586 90.1935 28.7284C90.1245 28.7983 90.0698 28.8812 90.0327 28.9723C89.9957 29.0635 89.9769 29.1612 89.9775 29.2596M94.591 27.7884C94.5901 27.9374 94.6333 28.0834 94.7151 28.2077C94.7969 28.332 94.9137 28.4291 95.0505 28.4865C95.1872 28.544 95.338 28.5593 95.4834 28.5304C95.6289 28.5016 95.7625 28.4299 95.8673 28.3245C95.9722 28.2191 96.0435 28.0847 96.0722 27.9385C96.1009 27.7923 96.0857 27.6407 96.0285 27.5032C95.9714 27.3657 95.8748 27.2483 95.7512 27.1661C95.6275 27.0838 95.4824 27.0404 95.3341 27.0413C95.1358 27.0413 94.9457 27.1205 94.8054 27.2615C94.6652 27.4024 94.5865 27.5936 94.5865 27.793M98.2609 24.823C98.2609 24.9716 98.3047 25.117 98.3869 25.2406C98.469 25.3642 98.5858 25.4605 98.7224 25.5174C98.859 25.5743 99.0094 25.5892 99.1544 25.5602C99.2994 25.5312 99.4326 25.4596 99.5372 25.3545C99.6418 25.2494 99.713 25.1154 99.7418 24.9696C99.7707 24.8238 99.7558 24.6727 99.6993 24.5353C99.6427 24.398 99.5468 24.2806 99.4239 24.198C99.3009 24.1154 99.1564 24.0713 99.0085 24.0713C98.8102 24.0713 98.6201 24.1505 98.4799 24.2915C98.3396 24.4324 98.2609 24.6236 98.2609 24.823ZM98.2107 8.18548C98.2116 8.33304 98.256 8.47703 98.3382 8.59928C98.4204 8.72153 98.5367 8.81657 98.6726 8.87242C98.8085 8.92826 98.9577 8.9424 99.1016 8.91306C99.2454 8.88372 99.3774 8.81221 99.4809 8.70755C99.5843 8.60288 99.6546 8.46976 99.6829 8.32497C99.7113 8.18017 99.6963 8.0302 99.6399 7.89395C99.5835 7.75771 99.4883 7.6413 99.3662 7.55941C99.2441 7.47752 99.1006 7.43382 98.9538 7.43381C98.8558 7.43381 98.7589 7.45329 98.6684 7.49112C98.5779 7.52895 98.4958 7.58439 98.4268 7.65425C98.3577 7.72411 98.3031 7.807 98.266 7.89817C98.2289 7.98934 98.2101 8.08699 98.2107 8.18548ZM93 6.20548C92.9991 6.01713 92.9427 5.83326 92.838 5.67709C92.7332 5.52092 92.5848 5.39944 92.4115 5.32799C92.2381 5.25654 92.0476 5.23831 91.864 5.27561C91.6804 5.31291 91.5118 5.40407 91.3797 5.53757C91.2475 5.67108 91.1576 5.84095 91.1214 6.02576C91.0852 6.21056 91.1043 6.40201 91.1762 6.57594C91.2481 6.74987 91.3696 6.89849 91.5254 7.00304C91.6813 7.10759 91.8644 7.16339 92.0518 7.1634C92.1767 7.1634 92.3003 7.13859 92.4157 7.09039C92.531 7.0422 92.6358 6.97156 92.7239 6.88255C92.812 6.79354 92.8817 6.68791 92.9291 6.57171C92.9765 6.45552 93.0006 6.33106 93 6.20548ZM96.1912 8.1809C96.1903 7.99254 96.1339 7.80868 96.0292 7.65251C95.9244 7.49634 95.776 7.37486 95.6027 7.30341C95.4293 7.23195 95.2388 7.21373 95.0552 7.25103C94.8715 7.28833 94.703 7.37948 94.5708 7.51299C94.4387 7.6465 94.3488 7.81637 94.3126 8.00117C94.2764 8.18597 94.2954 8.37742 94.3673 8.55135C94.4392 8.72529 94.5608 8.87391 94.7166 8.97846C94.8724 9.08301 95.0556 9.13881 95.2429 9.13881C95.3678 9.13881 95.4915 9.114 95.6069 9.06581C95.7222 9.01761 95.8269 8.94698 95.9151 8.85797C96.0032 8.76896 96.0729 8.66332 96.1203 8.54713C96.1677 8.43094 96.1918 8.30647 96.1912 8.1809ZM98.6803 10.9996C98.6803 10.81 98.6243 10.6246 98.5194 10.467C98.4145 10.3094 98.2654 10.1866 98.0911 10.1142C97.9167 10.0419 97.7249 10.0231 97.5399 10.0605C97.355 10.0978 97.1852 10.1895 97.0522 10.3239C96.9191 10.4584 96.8287 10.6295 96.7925 10.8156C96.7562 11.0017 96.7757 11.1945 96.8485 11.3694C96.9214 11.5444 97.0442 11.6937 97.2015 11.7984C97.3587 11.9031 97.5434 11.9585 97.7321 11.9576C97.857 11.9576 97.9806 11.9328 98.096 11.8846C98.2113 11.8364 98.3161 11.7657 98.4042 11.6767C98.4923 11.5877 98.562 11.4821 98.6094 11.3659C98.6568 11.2497 98.6809 11.1252 98.6803 10.9996ZM91.8557 0.27923C91.8622 0.212533 91.8424 0.145952 91.8007 0.0937099C91.7589 0.0414681 91.6985 0.00770933 91.6323 -0.000353749C91.5648 -0.00548794 91.498 0.016067 91.4461 0.0597237C91.3941 0.10338 91.3612 0.165692 91.3543 0.233396C91.3492 0.301265 91.3706 0.368458 91.414 0.420674C91.4574 0.472891 91.5194 0.506009 91.5868 0.51298C91.6201 0.516116 91.6537 0.512519 91.6856 0.502401C91.7175 0.492284 91.747 0.47585 91.7725 0.454067C91.798 0.432284 91.8189 0.405593 91.834 0.375567C91.8491 0.34554 91.858 0.312784 91.8603 0.27923M98.2153 2.5984C98.2184 2.56491 98.2148 2.53113 98.2048 2.49906C98.1947 2.46698 98.1784 2.43725 98.1567 2.41163C98.135 2.386 98.1085 2.36499 98.0786 2.34984C98.0487 2.33469 98.0162 2.3257 97.9828 2.3234C97.9198 2.32502 97.8596 2.35001 97.8139 2.39355C97.7681 2.43708 97.74 2.4961 97.7349 2.55924C97.7298 2.62237 97.7481 2.68517 97.7863 2.73555C97.8245 2.78593 97.8799 2.82034 97.9418 2.83215C98.0088 2.83723 98.0751 2.81553 98.1263 2.77177C98.1775 2.72801 98.2095 2.66571 98.2153 2.5984ZM103.207 6.2009C103.21 6.16716 103.207 6.13314 103.197 6.1008C103.187 6.06845 103.17 6.03841 103.149 6.01242C103.127 5.98643 103.101 5.965 103.071 5.94936C103.041 5.93372 103.008 5.92419 102.975 5.92131C102.941 5.91818 102.908 5.92177 102.876 5.93189C102.844 5.94201 102.814 5.95844 102.789 5.98023C102.763 6.00201 102.743 6.0287 102.727 6.05873C102.712 6.08875 102.703 6.12151 102.701 6.15506C102.694 6.19027 102.695 6.2265 102.703 6.26142C102.711 6.29634 102.727 6.32917 102.748 6.3578C102.77 6.38642 102.797 6.41021 102.828 6.42763C102.859 6.44505 102.894 6.45571 102.929 6.45892C102.965 6.46214 103 6.45784 103.034 6.44631C103.068 6.43477 103.099 6.41625 103.125 6.39194C103.151 6.36763 103.172 6.33807 103.186 6.30517C103.2 6.27226 103.208 6.23674 103.207 6.2009ZM94.5682 2.8734C94.5732 2.77813 94.5503 2.6835 94.5021 2.60128C94.454 2.51907 94.3829 2.45292 94.2976 2.41109C94.2123 2.36925 94.1167 2.35358 94.0226 2.36603C93.9285 2.37848 93.8402 2.4185 93.7686 2.4811C93.697 2.54369 93.6453 2.6261 93.62 2.71803C93.5946 2.80997 93.5968 2.90736 93.6262 2.99807C93.6555 3.08878 93.7108 3.1688 93.7851 3.22813C93.8594 3.28747 93.9494 3.3235 94.044 3.33173C94.1085 3.33735 94.1736 3.32986 94.2352 3.30969C94.2969 3.28952 94.3538 3.25708 94.4028 3.21432C94.4517 3.17156 94.4915 3.11934 94.52 3.06077C94.5484 3.0022 94.5648 2.93848 94.5682 2.8734ZM99.4143 5.31173C99.4199 5.2468 99.4124 5.18141 99.3923 5.11943C99.3723 5.05746 99.34 5.00018 99.2975 4.95101C99.255 4.90183 99.203 4.86176 99.1447 4.83318C99.0865 4.8046 99.0231 4.78809 98.9584 4.78465C98.8936 4.77599 98.8277 4.78065 98.7647 4.79833C98.7018 4.81601 98.6431 4.84635 98.5921 4.88751C98.5411 4.92867 98.499 4.9798 98.4683 5.0378C98.4375 5.0958 98.4188 5.15947 98.4133 5.22495C98.4077 5.29044 98.4154 5.35637 98.436 5.41877C98.4565 5.48117 98.4894 5.53873 98.5327 5.58798C98.5759 5.63722 98.6287 5.67712 98.6878 5.70527C98.7469 5.73342 98.811 5.74922 98.8763 5.75173C98.9407 5.75736 99.0055 5.74984 99.0669 5.72962C99.1282 5.7094 99.1849 5.6769 99.2335 5.63407C99.282 5.59125 99.3215 5.53899 99.3494 5.48045C99.3773 5.4219 99.3932 5.35827 99.396 5.2934M102.715 8.76298C102.62 8.75794 102.526 8.78105 102.444 8.82944C102.362 8.87782 102.297 8.94934 102.255 9.03508C102.213 9.12081 102.198 9.21696 102.21 9.31154C102.223 9.40612 102.262 9.49494 102.325 9.56693C102.387 9.63891 102.469 9.69088 102.56 9.71634C102.652 9.7418 102.749 9.73964 102.839 9.71011C102.929 9.68059 103.009 9.62501 103.068 9.55031C103.127 9.47561 103.163 9.3851 103.171 9.29006C103.176 9.22513 103.169 9.15974 103.149 9.09777C103.129 9.0358 103.096 8.97852 103.054 8.92934C103.011 8.88016 102.959 8.84009 102.901 8.81151C102.843 8.78293 102.78 8.76643 102.715 8.76298ZM88.2588 1.53506C88.162 1.53416 88.067 1.56226 87.9861 1.6158C87.9052 1.66934 87.842 1.74588 87.8045 1.83568C87.767 1.92548 87.757 2.02446 87.7756 2.12001C87.7943 2.21557 87.8409 2.30337 87.9094 2.37224C87.9778 2.4411 88.0652 2.4879 88.1602 2.50667C88.2553 2.52545 88.3537 2.51535 88.443 2.47767C88.5324 2.43998 88.6085 2.37641 88.6617 2.29507C88.715 2.21372 88.743 2.11828 88.7421 2.0209C88.7421 1.9571 88.7296 1.89392 88.7053 1.83498C88.681 1.77603 88.6454 1.72247 88.6005 1.67736C88.5556 1.63225 88.5024 1.59646 88.4437 1.57204C88.3851 1.54763 88.3223 1.53506 88.2588 1.53506ZM85.9065 2.86881C85.7582 2.86791 85.613 2.91134 85.4894 2.99358C85.3657 3.07582 85.2692 3.19317 85.2121 3.33071C85.1549 3.46824 85.1397 3.61975 85.1684 3.76599C85.1971 3.91222 85.2684 4.04658 85.3733 4.15197C85.4781 4.25737 85.6117 4.32905 85.7572 4.35791C85.9026 4.38677 86.0533 4.3715 86.1901 4.31404C86.3269 4.25658 86.4436 4.15953 86.5255 4.03522C86.6073 3.9109 86.6505 3.76495 86.6496 3.6159C86.6496 3.41776 86.5713 3.22773 86.4319 3.08763C86.2926 2.94752 86.1035 2.86881 85.9065 2.86881ZM81.1881 4.4684C81.04 4.46749 80.895 4.5108 80.7715 4.59284C80.6479 4.67488 80.5514 4.79196 80.4941 4.92922C80.4368 5.06649 80.4214 5.21777 80.4497 5.36388C80.478 5.50999 80.5489 5.64435 80.6532 5.74993C80.7576 5.85551 80.8908 5.92756 81.036 5.95693C81.1811 5.98631 81.3317 5.97169 81.4686 5.91494C81.6055 5.85819 81.7225 5.76185 81.8048 5.63814C81.8872 5.51443 81.9312 5.36892 81.9312 5.22006C81.9312 5.0215 81.853 4.831 81.7138 4.69017C81.5746 4.54933 81.3856 4.46961 81.1881 4.4684ZM74.2815 15.7801C74.1332 15.7792 73.988 15.8226 73.8644 15.9048C73.7407 15.9871 73.6442 16.1044 73.5871 16.242C73.5299 16.3795 73.5147 16.531 73.5434 16.6772C73.5721 16.8235 73.6434 16.9578 73.7483 17.0632C73.8531 17.1686 73.9867 17.2403 74.1322 17.2692C74.2776 17.298 74.4283 17.2827 74.5651 17.2253C74.7019 17.1678 74.8186 17.0708 74.9005 16.9465C74.9823 16.8222 75.0255 16.6762 75.0246 16.5271C75.0246 16.329 74.9463 16.139 74.8069 15.9989C74.6676 15.8588 74.4785 15.7801 74.2815 15.7801ZM75.1932 11.3663C75.0452 11.3654 74.9002 11.4087 74.7766 11.4908C74.6531 11.5728 74.5565 11.6899 74.4993 11.8271C74.442 11.9644 74.4265 12.1157 74.4548 12.2618C74.4832 12.4079 74.554 12.5423 74.6584 12.6478C74.7628 12.7534 74.896 12.8255 75.0411 12.8548C75.1863 12.8842 75.3368 12.8696 75.4737 12.8129C75.6106 12.7561 75.7276 12.6598 75.81 12.5361C75.8924 12.4123 75.9363 12.2668 75.9363 12.118C75.9369 12.0195 75.9181 11.9218 75.8811 11.8307C75.844 11.7395 75.7894 11.6566 75.7203 11.5867C75.6512 11.5169 75.5691 11.4614 75.4787 11.4236C75.3882 11.3858 75.2912 11.3663 75.1932 11.3663ZM77.5684 7.42923C77.4203 7.42832 77.2753 7.47163 77.1518 7.55367C77.0282 7.63571 76.9317 7.75279 76.8744 7.89006C76.8171 8.02732 76.8017 8.1786 76.83 8.32471C76.8583 8.47082 76.9292 8.60518 77.0335 8.71076C77.1379 8.81634 77.2711 8.88839 77.4163 8.91777C77.5614 8.94714 77.712 8.93253 77.8489 8.87577C77.9857 8.81902 78.1028 8.72268 78.1851 8.59897C78.2675 8.47526 78.3115 8.32976 78.3115 8.1809C78.3115 7.98233 78.2333 7.79183 78.0941 7.651C77.9549 7.51017 77.7659 7.43044 77.5684 7.42923ZM88.2588 28.3613C88.4475 28.3622 88.6321 28.3068 88.7894 28.2021C88.9467 28.0974 89.0695 27.9481 89.1423 27.7732C89.2151 27.5982 89.2347 27.4055 89.1984 27.2193C89.1622 27.0332 89.0718 26.8621 88.9387 26.7277C88.8057 26.5933 88.6359 26.5016 88.4509 26.4642C88.266 26.4269 88.0742 26.4456 87.8998 26.518C87.7254 26.5903 87.5764 26.7131 87.4715 26.8707C87.3666 27.0284 87.3106 27.2137 87.3106 27.4034C87.3106 27.6567 87.4103 27.8996 87.588 28.0791C87.7657 28.2586 88.0069 28.3601 88.2588 28.3613ZM88.2588 6.59965C88.4475 6.60055 88.6321 6.54514 88.7894 6.44044C88.9467 6.33574 89.0695 6.18645 89.1423 6.0115C89.2151 5.83654 89.2347 5.64379 89.1984 5.45767C89.1622 5.27156 89.0718 5.10044 88.9387 4.96602C88.8057 4.83159 88.6359 4.7399 88.4509 4.70257C88.266 4.66523 88.0742 4.68393 87.8998 4.7563C87.7254 4.82867 87.5764 4.95144 87.4715 5.10907C87.3666 5.26669 87.3106 5.45208 87.3106 5.64173C87.3106 5.89499 87.4103 6.13795 87.588 6.31746C87.7657 6.49698 88.0069 6.59843 88.2588 6.59965ZM84.475 7.1634C84.6636 7.1643 84.8483 7.10889 85.0056 7.00419C85.1629 6.89949 85.2857 6.7502 85.3585 6.57524C85.4313 6.40029 85.4508 6.20754 85.4146 6.02142C85.3783 5.83531 85.288 5.66419 85.1549 5.52977C85.0218 5.39534 84.8521 5.30365 84.6671 5.26632C84.4822 5.22898 84.2904 5.24768 84.116 5.32005C83.9416 5.39242 83.7926 5.51519 83.6877 5.67282C83.5828 5.83044 83.5268 6.01583 83.5268 6.20548C83.5262 6.33106 83.5502 6.45552 83.5976 6.57171C83.645 6.68791 83.7148 6.79354 83.8029 6.88255C83.891 6.97156 83.9957 7.0422 84.1111 7.09039C84.2264 7.13859 84.3501 7.1634 84.475 7.1634ZM81.2838 9.13881C81.4725 9.13972 81.6571 9.08431 81.8144 8.97961C81.9717 8.8749 82.0945 8.72562 82.1673 8.55066C82.2401 8.37571 82.2597 8.18296 82.2234 7.99684C82.1872 7.81072 82.0968 7.63961 81.9637 7.50518C81.8307 7.37076 81.6609 7.27907 81.4759 7.24173C81.291 7.2044 81.0992 7.2231 80.9248 7.29547C80.7505 7.36783 80.6014 7.49061 80.4965 7.64823C80.3916 7.80586 80.3356 7.99124 80.3356 8.1809C80.335 8.30647 80.3591 8.43094 80.4064 8.54713C80.4538 8.66332 80.5236 8.76896 80.6117 8.85797C80.6998 8.94698 80.8046 9.01761 80.9199 9.06581C81.0352 9.114 81.1589 9.13881 81.2838 9.13881ZM78.7673 11.9713C78.9561 11.9758 79.142 11.9239 79.3013 11.822C79.4606 11.7201 79.5863 11.573 79.6623 11.3992C79.7383 11.2254 79.7612 11.0329 79.7281 10.846C79.6951 10.6591 79.6075 10.4863 79.4766 10.3495C79.3457 10.2127 79.1773 10.1181 78.9928 10.0777C78.8083 10.0373 78.616 10.0529 78.4404 10.1226C78.2647 10.1923 78.1136 10.3128 78.0063 10.469C77.8989 10.6251 77.8401 10.8098 77.8373 10.9996C77.8368 11.1252 77.8608 11.2497 77.9082 11.3659C77.9556 11.4821 78.0254 11.5877 78.1135 11.6767C78.2016 11.7657 78.3063 11.8364 78.4217 11.8846C78.537 11.9328 78.6607 11.9576 78.7856 11.9576M77.7507 15.5188C77.9396 15.5197 78.1244 15.4642 78.2818 15.3593C78.4392 15.2544 78.562 15.1048 78.6347 14.9296C78.7074 14.7544 78.7266 14.5614 78.69 14.3751C78.6534 14.1889 78.5625 14.0178 78.429 13.8836C78.2955 13.7493 78.1253 13.658 77.94 13.6212C77.7548 13.5844 77.5628 13.6037 77.3886 13.6768C77.2143 13.7499 77.0655 13.8733 76.9612 14.0316C76.8568 14.1898 76.8016 14.3756 76.8025 14.5655C76.8025 14.8183 76.9024 15.0608 77.0802 15.2396C77.2581 15.4184 77.4992 15.5188 77.7507 15.5188ZM84.9354 0.51298C85.0028 0.506009 85.0648 0.472891 85.1082 0.420674C85.1516 0.368458 85.173 0.301265 85.1679 0.233396C85.161 0.165692 85.1281 0.10338 85.0761 0.0597237C85.0242 0.016067 84.9574 -0.00548794 84.8899 -0.000353749C84.8229 0.00659751 84.7613 0.0398817 84.7186 0.0922486C84.6759 0.144616 84.6555 0.211822 84.6619 0.27923C84.6642 0.312784 84.6731 0.34554 84.6882 0.375567C84.7033 0.405593 84.7242 0.432284 84.7497 0.454067C84.7752 0.47585 84.8047 0.492284 84.8366 0.502401C84.8685 0.512519 84.9021 0.516116 84.9354 0.51298ZM78.5804 2.83215C78.6138 2.82985 78.6464 2.82086 78.6763 2.8057C78.7061 2.79055 78.7327 2.76954 78.7543 2.74391C78.776 2.71829 78.7924 2.68856 78.8024 2.65648C78.8125 2.62441 78.8161 2.59063 78.8129 2.55715C78.8071 2.48983 78.7751 2.42753 78.7239 2.38377C78.6727 2.34001 78.6064 2.31832 78.5394 2.3234C78.506 2.3257 78.4734 2.33469 78.4436 2.34984C78.4137 2.36499 78.3872 2.386 78.3655 2.41163C78.3438 2.43725 78.3275 2.46698 78.3174 2.49906C78.3074 2.53113 78.3038 2.56491 78.3069 2.5984C78.3127 2.66571 78.3447 2.72801 78.3959 2.77177C78.4471 2.81553 78.5134 2.83723 78.5804 2.83215ZM106.107 22.8659C106.142 22.8668 106.178 22.8602 106.211 22.8463C106.244 22.8325 106.274 22.8119 106.299 22.7857C106.323 22.7596 106.342 22.7285 106.354 22.6945C106.366 22.6606 106.371 22.6245 106.368 22.5886C106.365 22.5527 106.354 22.5178 106.337 22.4862C106.32 22.4546 106.296 22.427 106.268 22.4052C106.239 22.3833 106.207 22.3678 106.172 22.3595C106.137 22.3512 106.101 22.3504 106.066 22.3571C106.032 22.3594 106 22.3684 105.97 22.3836C105.94 22.3987 105.913 22.4198 105.892 22.4454C105.87 22.471 105.854 22.5007 105.844 22.5328C105.834 22.5649 105.83 22.5987 105.833 22.6321C105.839 22.6995 105.871 22.7618 105.922 22.8055C105.973 22.8493 106.04 22.871 106.107 22.8659ZM103.061 27.1284C103.128 27.1203 103.19 27.0869 103.233 27.035C103.276 26.983 103.298 26.9164 103.294 26.8488C103.289 26.7984 103.27 26.7504 103.238 26.711C103.206 26.6717 103.164 26.6426 103.115 26.6276C103.067 26.6125 103.016 26.6121 102.968 26.6264C102.919 26.6408 102.876 26.6691 102.844 26.708C102.811 26.7469 102.791 26.7945 102.786 26.8449C102.78 26.8953 102.79 26.9462 102.813 26.9911C102.836 27.0361 102.872 27.0731 102.917 27.0975C102.961 27.122 103.011 27.1327 103.061 27.1284ZM97.9782 30.708C98.0116 30.7057 98.0442 30.6967 98.0741 30.6815C98.1039 30.6664 98.1305 30.6454 98.1521 30.6197C98.1738 30.5941 98.1901 30.5644 98.2002 30.5323C98.2103 30.5002 98.2139 30.4665 98.2107 30.433C98.2111 30.3971 98.2039 30.3616 98.1898 30.3287C98.1756 30.2958 98.1548 30.2662 98.1286 30.2419C98.1023 30.2176 98.0714 30.1991 98.0376 30.1876C98.0038 30.176 97.9681 30.1717 97.9325 30.1749C97.897 30.1782 97.8626 30.1888 97.8314 30.2062C97.8002 30.2237 97.7731 30.2475 97.7516 30.2761C97.7301 30.3047 97.7149 30.3375 97.7068 30.3725C97.6987 30.4074 97.698 30.4436 97.7047 30.4788C97.7076 30.512 97.7169 30.5442 97.7322 30.5737C97.7476 30.6032 97.7686 30.6294 97.794 30.6507C97.8194 30.672 97.8488 30.688 97.8804 30.6979C97.912 30.7077 97.9453 30.7111 97.9782 30.708ZM91.6323 32.9996C91.6993 32.9927 91.7609 32.9594 91.8036 32.907C91.8463 32.8547 91.8667 32.7875 91.8603 32.7201C91.858 32.6865 91.8491 32.6538 91.834 32.6237C91.8189 32.5937 91.798 32.567 91.7725 32.5452C91.747 32.5234 91.7175 32.507 91.6856 32.4969C91.6537 32.4868 91.6201 32.4832 91.5868 32.4863C91.5191 32.4924 91.4565 32.5253 91.4129 32.5777C91.3693 32.6301 91.3482 32.6978 91.3543 32.7659C91.3603 32.834 91.393 32.8968 91.4451 32.9407C91.4973 32.9845 91.5646 33.0057 91.6323 32.9996ZM84.94 32.9996C85.0077 32.9936 85.0702 32.9607 85.1138 32.9083C85.1574 32.8558 85.1785 32.7881 85.1725 32.7201C85.1665 32.652 85.1338 32.5891 85.0816 32.5453C85.0295 32.5014 84.9621 32.4802 84.8944 32.4863C84.8274 32.4933 84.7659 32.5265 84.7232 32.5789C84.6805 32.6313 84.6601 32.6985 84.6665 32.7659C84.6688 32.7994 84.6777 32.8322 84.6928 32.8622C84.7078 32.8923 84.7287 32.9189 84.7542 32.9407C84.7797 32.9625 84.8093 32.979 84.8412 32.9891C84.8731 32.9992 84.9067 33.0028 84.94 32.9996ZM78.585 30.6759C78.6184 30.6736 78.651 30.6646 78.6808 30.6495C78.7107 30.6343 78.7372 30.6133 78.7589 30.5877C78.7806 30.562 78.7969 30.5323 78.807 30.5002C78.817 30.4682 78.8206 30.4344 78.8175 30.4009C78.8117 30.3336 78.7797 30.2713 78.7285 30.2275C78.6773 30.1838 78.611 30.1621 78.544 30.1671C78.5106 30.1694 78.478 30.1784 78.4481 30.1936C78.4183 30.2087 78.3917 30.2297 78.3701 30.2554C78.3484 30.281 78.3321 30.3107 78.322 30.3428C78.3119 30.3749 78.3083 30.4087 78.3115 30.4421C78.3173 30.5095 78.3493 30.5718 78.4005 30.6155C78.4517 30.6593 78.518 30.681 78.585 30.6759ZM73.5703 27.078C73.6208 27.0742 73.669 27.0553 73.7088 27.0239C73.7486 26.9925 73.7782 26.9499 73.7939 26.9015C73.8095 26.8531 73.8105 26.8011 73.7967 26.7521C73.783 26.7032 73.755 26.6594 73.7164 26.6265C73.6779 26.5935 73.6304 26.5728 73.5801 26.567C73.5299 26.5612 73.479 26.5706 73.434 26.594C73.389 26.6173 73.352 26.6535 73.3275 26.6981C73.3031 26.7427 73.2924 26.7935 73.2968 26.8442C73.3026 26.9115 73.3345 26.9738 73.3858 27.0176C73.437 27.0614 73.5033 27.0831 73.5703 27.078ZM70.4338 22.8659C70.4696 22.8668 70.5052 22.8602 70.5383 22.8463C70.5714 22.8325 70.6012 22.8119 70.6258 22.7857C70.6504 22.7596 70.6693 22.7285 70.6812 22.6945C70.6931 22.6606 70.6977 22.6245 70.6948 22.5886C70.6919 22.5527 70.6816 22.5178 70.6644 22.4862C70.6472 22.4546 70.6236 22.427 70.5951 22.4052C70.5666 22.3833 70.5339 22.3678 70.499 22.3595C70.4642 22.3512 70.428 22.3504 70.3928 22.3571C70.3309 22.369 70.2755 22.4034 70.2373 22.4537C70.1991 22.5041 70.1808 22.5669 70.1859 22.6301C70.191 22.6932 70.2191 22.7522 70.2649 22.7957C70.3107 22.8393 70.3708 22.8643 70.4338 22.8659ZM73.5885 6.41631C73.639 6.41249 73.6872 6.39366 73.727 6.36224C73.7668 6.33081 73.7964 6.28819 73.8121 6.2398C73.8278 6.19141 73.8288 6.13943 73.815 6.09047C73.8012 6.0415 73.7732 5.99777 73.7347 5.96481C73.6961 5.93185 73.6487 5.91116 73.5984 5.90537C73.5481 5.89958 73.4972 5.90895 73.4523 5.93229C73.4073 5.95563 73.3702 5.99188 73.3458 6.03644C73.3213 6.08101 73.3106 6.13187 73.315 6.18256C73.3208 6.24988 73.3528 6.31218 73.404 6.35594C73.4552 6.3997 73.5215 6.42139 73.5885 6.41631ZM82.4737 3.29506C82.5682 3.28683 82.6582 3.2508 82.7325 3.19146C82.8068 3.13213 82.8621 3.05212 82.8915 2.96141C82.9208 2.8707 82.923 2.7733 82.8977 2.68136C82.8723 2.58943 82.8207 2.50703 82.7491 2.44443C82.6775 2.38183 82.5891 2.34181 82.495 2.32936C82.401 2.31691 82.3053 2.33258 82.2201 2.37442C82.1348 2.41625 82.0636 2.4824 82.0155 2.56462C81.9674 2.64683 81.9444 2.74147 81.9494 2.83673C81.9528 2.90181 81.9693 2.96553 81.9977 3.0241C82.0261 3.08267 82.066 3.13489 82.1149 3.17765C82.1638 3.22042 82.2208 3.25285 82.2824 3.27302C82.344 3.29319 82.4091 3.30069 82.4737 3.29506ZM77.6231 5.7334C77.7462 5.71695 77.8584 5.65345 77.9362 5.55608C78.014 5.45871 78.0515 5.33495 78.0409 5.2105C78.0304 5.08605 77.9726 4.97046 77.8795 4.88775C77.7864 4.80504 77.6652 4.76155 77.541 4.76631C77.4757 4.76882 77.4116 4.78462 77.3525 4.81277C77.2934 4.84092 77.2406 4.88082 77.1974 4.93007C77.1541 4.97931 77.1212 5.03687 77.1007 5.09927C77.0801 5.16167 77.0724 5.22761 77.078 5.29309C77.0835 5.35857 77.1022 5.42224 77.133 5.48024C77.1637 5.53824 77.2058 5.58937 77.2568 5.63053C77.3078 5.67169 77.3665 5.70203 77.4295 5.71971C77.4924 5.7374 77.5583 5.74205 77.6231 5.7334ZM73.3469 9.29006C73.3463 9.35605 73.3598 9.42141 73.3866 9.48165C73.4134 9.5419 73.4528 9.59562 73.5021 9.63914C73.5515 9.68265 73.6096 9.71495 73.6725 9.7338C73.7354 9.75266 73.8016 9.75764 73.8666 9.7484C73.9614 9.74104 74.052 9.70573 74.1269 9.64687C74.2019 9.58802 74.2579 9.50825 74.2879 9.41754C74.318 9.32683 74.3207 9.22923 74.2959 9.13695C74.271 9.04467 74.2196 8.96182 74.1481 8.89877C74.0766 8.83572 73.9882 8.79529 73.894 8.78252C73.7997 8.76975 73.7038 8.78523 73.6183 8.827C73.5328 8.86877 73.4614 8.93499 73.4131 9.01736C73.3648 9.09973 73.3418 9.19459 73.3469 9.29006ZM104.643 18.5209C104.515 18.5318 104.396 18.5935 104.314 18.6924C104.231 18.7912 104.19 18.9191 104.201 19.048C104.212 19.1768 104.273 19.2961 104.372 19.3794C104.47 19.4628 104.597 19.5035 104.725 19.4926C104.789 19.4871 104.851 19.4692 104.907 19.4398C104.964 19.4104 105.014 19.37 105.055 19.3211C105.096 19.2722 105.127 19.2156 105.146 19.1545C105.166 19.0935 105.173 19.0293 105.168 18.9655C105.162 18.9017 105.144 18.8396 105.115 18.7827C105.086 18.7258 105.046 18.6753 104.997 18.634C104.948 18.5927 104.892 18.5615 104.831 18.5421C104.771 18.5227 104.707 18.5155 104.643 18.5209ZM102.742 23.2371C102.648 23.2454 102.558 23.2814 102.483 23.3407C102.409 23.4001 102.354 23.4801 102.324 23.5708C102.295 23.6615 102.293 23.7589 102.318 23.8508C102.344 23.9428 102.395 24.0252 102.467 24.0878C102.538 24.1504 102.627 24.1904 102.721 24.2028C102.815 24.2153 102.911 24.1996 102.996 24.1578C103.081 24.116 103.152 24.0498 103.2 23.9676C103.248 23.8854 103.271 23.7907 103.266 23.6955C103.263 23.6304 103.247 23.5667 103.218 23.5081C103.19 23.4495 103.15 23.3973 103.101 23.3546C103.052 23.3118 102.995 23.2794 102.933 23.2592C102.872 23.239 102.807 23.2315 102.742 23.2371ZM98.9903 27.2476C98.8955 27.2549 98.8049 27.2902 98.73 27.3491C98.6551 27.4079 98.599 27.4877 98.569 27.5784C98.5389 27.6691 98.5362 27.7667 98.561 27.859C98.5859 27.9513 98.6373 28.0341 98.7088 28.0972C98.7803 28.1602 98.8687 28.2007 98.9629 28.2134C99.0572 28.2262 99.1531 28.2107 99.2386 28.169C99.3241 28.1272 99.3955 28.061 99.4438 27.9786C99.4921 27.8962 99.5151 27.8014 99.51 27.7059C99.5106 27.6399 99.4971 27.5746 99.4703 27.5143C99.4435 27.4541 99.4041 27.4003 99.3548 27.3568C99.3054 27.3133 99.2473 27.281 99.1844 27.2622C99.1215 27.2433 99.0553 27.2383 98.9903 27.2476ZM94.0485 29.6905C93.9838 29.6939 93.9204 29.7104 93.8622 29.739C93.8039 29.7676 93.752 29.8077 93.7094 29.8568C93.6669 29.906 93.6346 29.9633 93.6146 30.0253C93.5945 30.0872 93.587 30.1526 93.5926 30.2176C93.5951 30.2832 93.6109 30.3477 93.6389 30.4071C93.6668 30.4665 93.7065 30.5196 93.7555 30.5631C93.8045 30.6066 93.8618 30.6397 93.9238 30.6603C93.9859 30.6809 94.0515 30.6887 94.1166 30.6831C94.1817 30.6775 94.2451 30.6587 94.3028 30.6278C94.3605 30.5969 94.4113 30.5546 94.4522 30.5033C94.4932 30.4521 94.5234 30.393 94.5409 30.3297C94.5585 30.2664 94.5632 30.2002 94.5546 30.1351C94.5517 30.0702 94.5359 30.0066 94.5079 29.948C94.48 29.8895 94.4406 29.8372 94.392 29.7944C94.3434 29.7516 94.2868 29.7191 94.2254 29.6988C94.164 29.6786 94.0992 29.6711 94.0349 29.6767M88.2041 30.4788C88.1388 30.4813 88.0747 30.4971 88.0156 30.5253C87.9565 30.5534 87.9037 30.5933 87.8605 30.6426C87.8172 30.6918 87.7843 30.7494 87.7637 30.8118C87.7432 30.8742 87.7355 30.9401 87.7411 31.0056C87.7466 31.0711 87.7653 31.1347 87.7961 31.1927C87.8268 31.2507 87.8689 31.3019 87.9199 31.343C87.9708 31.3842 88.0296 31.4145 88.0925 31.4322C88.1555 31.4499 88.2214 31.4545 88.2862 31.4459C88.4093 31.4294 88.5214 31.3659 88.5993 31.2686C88.6771 31.1712 88.7146 31.0474 88.704 30.923C88.6935 30.7985 88.6356 30.683 88.5425 30.6002C88.4495 30.5175 88.3283 30.474 88.2041 30.4788ZM82.6059 29.8371C82.4777 29.8481 82.3591 29.9098 82.2762 30.0086C82.1933 30.1075 82.1528 30.2354 82.1637 30.3642C82.1746 30.4931 82.2359 30.6123 82.3342 30.6957C82.4325 30.7791 82.5598 30.8198 82.6879 30.8088C82.8161 30.7979 82.9347 30.7362 83.0176 30.6373C83.1005 30.5385 83.141 30.4106 83.1301 30.2817C83.1193 30.1529 83.0579 30.0336 82.9596 29.9503C82.8613 29.8669 82.734 29.8262 82.6059 29.8371ZM77.541 27.2659C77.4757 27.2684 77.4116 27.2842 77.3525 27.3124C77.2934 27.3405 77.2406 27.3804 77.1974 27.4296C77.1541 27.4789 77.1212 27.5365 77.1007 27.5989C77.0801 27.6613 77.0724 27.7272 77.078 27.7927C77.0835 27.8582 77.1022 27.9218 77.133 27.9798C77.1637 28.0378 77.2058 28.089 77.2568 28.1301C77.3078 28.1713 77.3665 28.2016 77.4295 28.2193C77.4924 28.237 77.5583 28.2416 77.6231 28.233C77.7462 28.2165 77.8584 28.153 77.9362 28.0557C78.014 27.9583 78.0515 27.8345 78.0409 27.7101C78.0304 27.5856 77.9726 27.47 77.8795 27.3873C77.7864 27.3046 77.6652 27.2611 77.541 27.2659ZM73.78 23.2509C73.6855 23.2591 73.5954 23.2952 73.5211 23.3545C73.4468 23.4138 73.3916 23.4938 73.3622 23.5846C73.3328 23.6753 73.3307 23.7727 73.356 23.8646C73.3813 23.9565 73.433 24.0389 73.5046 24.1015C73.5762 24.1641 73.6646 24.2041 73.7586 24.2166C73.8527 24.229 73.9483 24.2134 74.0336 24.1715C74.1189 24.1297 74.19 24.0636 74.2382 23.9813C74.2863 23.8991 74.3093 23.8045 74.3043 23.7092C74.3008 23.6441 74.2844 23.5804 74.256 23.5219C74.2276 23.4633 74.1877 23.4111 74.1388 23.3683C74.0899 23.3255 74.0329 23.2931 73.9713 23.2729C73.9096 23.2528 73.8446 23.2453 73.78 23.2509ZM71.6829 13.9421C71.5884 13.9504 71.4984 13.9864 71.4241 14.0457C71.3498 14.1051 71.2945 14.1851 71.2651 14.2758C71.2358 14.3665 71.2336 14.4639 71.2589 14.5558C71.2843 14.6478 71.336 14.7302 71.4076 14.7928C71.4792 14.8554 71.5675 14.8954 71.6616 14.9078C71.7557 14.9203 71.8513 14.9046 71.9366 14.8628C72.0218 14.821 72.093 14.7548 72.1411 14.6726C72.1892 14.5904 72.2122 14.4957 72.2072 14.4005C72.2038 14.3354 72.1874 14.2717 72.1589 14.2131C72.1305 14.1545 72.0907 14.1023 72.0417 14.0596C71.9928 14.0168 71.9358 13.9844 71.8742 13.9642C71.8126 13.944 71.7475 13.9365 71.6829 13.9421ZM85.4232 26.7755C85.4232 26.5869 85.3676 26.4026 85.2634 26.2458C85.1592 26.0891 85.0111 25.9669 84.8379 25.8947C84.6646 25.8226 84.4739 25.8037 84.29 25.8405C84.1061 25.8772 83.9371 25.968 83.8045 26.1014C83.6719 26.2347 83.5816 26.4046 83.545 26.5895C83.5084 26.7744 83.5272 26.9661 83.5989 27.1403C83.6707 27.3145 83.7922 27.4634 83.9482 27.5681C84.1041 27.6729 84.2875 27.7288 84.475 27.7288C84.5995 27.7288 84.7228 27.7042 84.8379 27.6562C84.9529 27.6083 85.0574 27.5381 85.1455 27.4496C85.2336 27.3611 85.3034 27.256 85.3511 27.1403C85.3987 27.0246 85.4232 26.9007 85.4232 26.7755ZM91.9697 25.8176C91.7811 25.8167 91.5964 25.8721 91.4391 25.9768C91.2818 26.0815 91.159 26.2308 91.0862 26.4057C91.0134 26.5807 90.9939 26.7734 91.0301 26.9595C91.0664 27.1457 91.1567 27.3168 91.2898 27.4512C91.4229 27.5856 91.5926 27.6773 91.7776 27.7146C91.9625 27.752 92.1543 27.7333 92.3287 27.6609C92.5031 27.5885 92.6522 27.4658 92.757 27.3081C92.8619 27.1505 92.9179 26.9651 92.9179 26.7755C92.9185 26.6499 92.8944 26.5254 92.8471 26.4092C92.7997 26.2931 92.7299 26.1874 92.6418 26.0984C92.5537 26.0094 92.449 25.9388 92.3336 25.8906C92.2183 25.8424 92.0946 25.8176 91.9697 25.8176ZM95.2201 23.9201C95.0333 23.9237 94.8516 23.9825 94.6978 24.0891C94.5439 24.1958 94.4247 24.3455 94.3548 24.5198C94.285 24.6941 94.2676 24.8851 94.305 25.0692C94.3423 25.2533 94.4327 25.4223 94.5648 25.5551C94.697 25.688 94.8651 25.7789 95.0482 25.8164C95.2313 25.8539 95.4213 25.8365 95.5947 25.7663C95.768 25.6961 95.917 25.5762 96.023 25.4215C96.1291 25.2668 96.1876 25.0842 96.1912 24.8963C96.1912 24.643 96.0914 24.4001 95.9137 24.2206C95.736 24.0411 95.4948 23.9396 95.2429 23.9384M98.6666 21.9996C98.6657 21.8113 98.6093 21.6274 98.5046 21.4713C98.3999 21.3151 98.2515 21.1936 98.0781 21.1222C97.9048 21.0507 97.7142 21.0325 97.5306 21.0698C97.347 21.1071 97.1784 21.1982 97.0463 21.3317C96.9141 21.4652 96.8243 21.6351 96.788 21.8199C96.7518 22.0047 96.7709 22.1962 96.8428 22.3701C96.9147 22.544 97.0362 22.6927 97.192 22.7972C97.3479 22.9018 97.531 22.9576 97.7184 22.9576C97.8433 22.9576 97.967 22.9328 98.0823 22.8846C98.1977 22.8364 98.3024 22.7657 98.3905 22.6767C98.4786 22.5877 98.5484 22.4821 98.5957 22.3659C98.6431 22.2497 98.6672 22.1252 98.6666 21.9996ZM81.3021 23.8788C81.1134 23.8779 80.9288 23.9333 80.7715 24.038C80.6142 24.1427 80.4914 24.292 80.4185 24.467C80.3457 24.6419 80.3262 24.8347 80.3624 25.0208C80.3987 25.2069 80.4891 25.378 80.6222 25.5124C80.7552 25.6469 80.925 25.7386 81.1099 25.7759C81.2949 25.8132 81.4867 25.7945 81.661 25.7222C81.8354 25.6498 81.9845 25.527 82.0894 25.3694C82.1943 25.2118 82.2503 25.0264 82.2503 24.8367C82.2509 24.7111 82.2268 24.5867 82.1794 24.4705C82.132 24.3543 82.0623 24.2487 81.9742 24.1597C81.8861 24.0706 81.7813 24 81.666 23.9518C81.5507 23.9036 81.427 23.8788 81.3021 23.8788ZM78.7856 21.0463C78.5968 21.0454 78.4119 21.1009 78.2545 21.2058C78.0971 21.3107 77.9743 21.4603 77.9016 21.6355C77.829 21.8107 77.8097 22.0037 77.8463 22.19C77.8829 22.3762 77.9738 22.5473 78.1073 22.6816C78.2408 22.8158 78.411 22.9071 78.5963 22.9439C78.7815 22.9808 78.9735 22.9614 79.1478 22.8883C79.322 22.8153 79.4708 22.6918 79.5751 22.5336C79.6795 22.3753 79.7347 22.1895 79.7338 21.9996C79.7338 21.7468 79.6339 21.5043 79.4561 21.3255C79.2783 21.1468 79.0371 21.0463 78.7856 21.0463ZM116.852 12.833H122.728V20.7163H124.793V12.833H130.154L130.651 11.458H117.353L116.852 12.833ZM69.2075 11.458H67.1423V20.7163H76.5609L77.0669 19.3413H69.2075V11.458ZM88.4047 11.458L93.3829 20.6246H95.594L90.6157 11.4809L88.4047 11.458ZM80.8826 20.6246H83.0937L88.0673 11.4809H85.8563L80.8826 20.6246ZM110.574 18.333L101.912 11.4946H99.8382V20.6246H101.903V13.7496L110.565 20.6246H112.626V11.4809H110.565L110.574 18.333ZM152.306 15.3584H145.978C145.819 15.373 145.658 15.3542 145.507 15.3031C145.355 15.2519 145.216 15.1697 145.097 15.0615C144.979 14.9533 144.884 14.8216 144.819 14.6746C144.754 14.5277 144.72 14.3688 144.72 14.208V13.9513C144.722 13.7945 144.757 13.6399 144.822 13.4971C144.886 13.3544 144.979 13.2266 145.095 13.1216C145.211 13.0167 145.347 12.9369 145.495 12.8872C145.643 12.8376 145.8 12.8191 145.955 12.833H154.499L155 11.458H145.354C143.617 11.458 142.732 12.6359 142.709 13.8046V14.4096C142.709 15.5967 143.621 16.8251 145.404 16.8251H151.731C151.889 16.8105 152.049 16.829 152.2 16.8793C152.35 16.9296 152.489 17.0106 152.607 17.1173C152.725 17.224 152.82 17.3541 152.886 17.4994C152.952 17.6447 152.987 17.8021 152.99 17.9617V18.2184C152.986 18.3748 152.951 18.5289 152.886 18.6711C152.822 18.8133 152.728 18.9406 152.612 19.0451C152.497 19.1495 152.361 19.2289 152.213 19.2783C152.065 19.3277 151.909 19.346 151.754 19.3321H143.211L142.709 20.7071H152.356C154.093 20.7071 154.977 19.5292 155 18.3605V17.7555C155 16.573 154.088 15.3446 152.306 15.3446M9.61456 15.3446H3.26868C3.11054 15.3592 2.95111 15.3407 2.8004 15.2904C2.64968 15.2402 2.51092 15.1591 2.3928 15.0524C2.27468 14.9457 2.17975 14.8156 2.11395 14.6703C2.04816 14.525 2.01292 14.3676 2.01044 14.208V13.9513C2.01296 13.7945 2.0476 13.6399 2.1122 13.4971C2.1768 13.3544 2.26997 13.2266 2.38589 13.1216C2.50182 13.0167 2.63802 12.9369 2.78598 12.8872C2.93394 12.8376 3.0905 12.8191 3.24588 12.833H11.7891L12.2906 11.458H2.64412C0.911765 11.4992 0.0227941 12.6588 0 13.8276V14.4326C0 15.6196 0.911765 16.848 2.69426 16.848H9.02191C9.18005 16.8334 9.33947 16.8519 9.49019 16.9022C9.64091 16.9525 9.77967 17.0335 9.89779 17.1402C10.0159 17.2469 10.1108 17.377 10.1766 17.5223C10.2424 17.6676 10.2777 17.825 10.2801 17.9846V18.2413C10.277 18.3977 10.2419 18.5518 10.177 18.694C10.1122 18.8363 10.0189 18.9635 9.90305 19.068C9.78719 19.1724 9.65121 19.2518 9.50355 19.3012C9.35589 19.3506 9.19971 19.3689 9.04471 19.3551H0.501471L0 20.7301H9.64647C11.3834 20.7301 12.2678 19.5521 12.2906 18.3834V17.7555C12.2906 16.573 11.3788 15.3446 9.59632 15.3446M135.014 20.6246H137.079V11.4809H135.014V20.6246ZM16.7901 12.833H22.6619V20.7163H24.7271V12.833H30.0882L30.5897 11.458H17.2871L16.7901 12.833ZM45.0549 12.833L45.5563 11.458H35.1029V20.7163H45.0685L45.57 19.3413H37.1818V16.7426H43.049L43.5459 15.3951H37.1635V12.833H45.0549ZM53.8306 19.3505H61.69L61.184 20.7255H51.7654V11.4809H53.8306V19.3505Z" fill="black"/>
</g>
<defs>
<clipPath id="clip0_4_96">
<rect width="155" height="33" fill="white"/>
</clipPath>
</defs>
</svg>
